<svg id="Layer_1" data-name="Layer 1" xmlns="http://www.w3.org/2000/svg" xmlns:xlink="http://www.w3.org/1999/xlink" viewBox="0 0 1024 1024"><defs><style>.cls-1{fill:none;}.cls-2{fill:#4edbf2;}.cls-3{clip-path:url(#clip-path);}.cls-4{fill:#eaeaea;}.cls-5{fill:#d62575;}.cls-6{fill:#dfe3e5;}.cls-7{fill:#cfd1d1;}.cls-8{fill:#b9c0c6;}.cls-9{clip-path:url(#clip-path-2);}.cls-10{fill:#47c46a;}.cls-11{fill:#d7dee2;}.cls-12{fill:#c6cacc;}.cls-13{fill:#e12573;}.cls-14,.cls-25{fill:#fff;}.cls-15{fill:#f49308;}.cls-16{fill:#f4f4f4;}.cls-17{fill:#ff8931;}.cls-18{fill:#ffbd39;}.cls-19{fill:#ffee52;}.cls-20{fill:#48c8ec;}.cls-21{fill:#d1d1d1;}.cls-22{fill:#e2e2e2;}.cls-23{fill:#ededed;}.cls-24{fill:#f29104;}.cls-25{stroke:#fff;stroke-miterlimit:10;stroke-width:1.7px;}.cls-26{fill:#ea7206;}.cls-27{fill:#c8ccce;}</style><clipPath id="clip-path"><circle class="cls-1" cx="507.8" cy="-536.05" r="492.4"/></clipPath><clipPath id="clip-path-2"><circle class="cls-2" cx="532.6" cy="403.62" r="392.61"/></clipPath></defs><g class="cls-3"><path id="Rectangle_82" data-name="Rectangle 82" class="cls-4" d="M-1762-844.85H764.6A93.93,93.93,0,0,1,858.4-751V776.55a93.93,93.93,0,0,1-93.8,93.8H-1762a93.93,93.93,0,0,1-93.8-93.8V-751C-1855.3-802.95-1813.4-844.85-1762-844.85Z"/></g><path class="cls-5" d="M713.78,239.9q13.35,21.47,26.71,42.93c21.24.84,68.46-.46,108.08-30.64,25.58-19.49,41.36-44.63,41.36-44.63,10.73-17.1,12.94-28,26.2-47.5a196.1,196.1,0,0,1,29.21-33.82A292.5,292.5,0,0,0,843.66,133C813,140.66,779.12,149.09,750,178.67,728.47,200.5,718.54,224.72,713.78,239.9Z"/><rect class="cls-6" x="470.15" y="841.29" width="63.4" height="171.69"/><rect class="cls-7" x="470.33" y="846.42" width="20.15" height="108.97"/><path class="cls-8" d="M852.87,733.77a3.9,3.9,0,0,1-2.77-1.15L203,85.52A3.92,3.92,0,1,1,208.54,80L855.65,727.08a3.92,3.92,0,0,1-2.78,6.69Z"/><circle class="cls-2" cx="532.6" cy="403.62" r="392.61"/><g class="cls-9"><path class="cls-10" d="M870.37,619.84a62.52,62.52,0,0,1-3.77-27c.67-7.52,2.6-12.64,6.6-23.89,6.51-18.3,9.76-27.45,11.32-32.71,3.93-13.25,10.16-34.23,5.35-57.54-2.57-12.43-5.68-13-7.86-26.1a94.72,94.72,0,0,1,1.57-37.73c-.2.32-4.25,6.86-9.43,6.29-2.82-.31-4.95-2.61-6.61-4.4-3.16-3.41-2.58-5.12-4.71-6.61-3.27-2.27-9.4-1.58-12.9,1.58-5.09,4.59-2.17,12.22-6.6,14.15-1.63.7-3.92.36-8.49-.32-3.43-.51-3.81-1-5-.63-3,.91-2.9,4.47-6,8.81-.53.76-4.31,6-9.43,7.23-4,1-7.51-.75-12.89-3.77-21.5-12.09-19.76-15.09-33.33-22.64-3-1.67-6.73-3.55-8.18-7.55-.79-2.18-.42-3.67-.31-11.32.06-4-.05-3,0-7.55.22-20.23,2.18-24.43-.94-30.81-1.6-3.27-1.83-1.59-7.55-9.12-4.92-6.48-8.53-11.24-10.69-17.61-1-3-4.49-13.23-.32-23.27,3.3-7.93,10.12-12.7,16.67-17.29,8-5.6,13.32-6.82,16-13.21.38-.89,2.61-6.15.31-9.12-2.18-2.8-6.05-.51-9.75-3.46-4.06-3.24-4.08-9.77-4.09-11.95a76.12,76.12,0,0,1,1.26-7.86c1.37-7.5,1.69-8,2.2-8.49,2.11-1.86,4.71-.21,13.21.32,6,.37,9,.55,11.32-.94,1.21-.78,2.8-2.27,5.66-12.27,3.05-10.66,2.26-12.51,4.72-14.78,4-3.7,10.83-3.15,15.09-1.57a19.1,19.1,0,0,1,10.06,9.43c3.52,7.07,1.59,14.11,3.46,14.47.35.07.75-.11,4.09-4.09,3.63-4.32,3.83-4.9,4.71-5,2.76-.4,3.66,4.89,8.81,6.92,2.73,1.07,6.86,1.32,9.12-1,2.7-2.71,1.44-7.73,1.26-8.49-1.06-4.24-3.91-5.83-3.15-7.23.44-.81,1.64-.75,7.23-.94,5.87-.2,6.67-.34,7.24-.94,2.15-2.3-1.47-8.84-2.21-10.38-3.14-6.57-.93-20.14,24.53-51.25,91.24,71.42,135.52,184.16,113.19,290C977.47,550.55,888.64,608.47,870.37,619.84Z"/><path class="cls-10" d="M653.64,2.07c-1,5.71-2.58,19.21,5.48,29.71,3,3.87,6.13,5.88,11,8.9C688.12,51.9,705,52,704.93,56.2c0,1.49-2.19,2.52-2.46,2.65-2.16,1-5,.41-11.36-3.41-9.88-6-13.81-11.07-17.6-9.65-1.48.56-1.87,1.71-3.79,1.89-.89.09-1.86-.06-6.05-2.08-3.4-1.63-4.39-2.32-4.92-1.89s.15,1.84.56,4.35c.7,4.23-.62,5.55,0,7.95.87,3.31,4.46,5,6.63,6.06,12.52,6.33,23.78,17.47,22.52,20.25a18.22,18.22,0,0,1-3.21,1.89c-2.93,1.59-3.5,1.75-3.6,2.28-.23,1.22,2.51,2.28,6.25,4.73a64.64,64.64,0,0,1,9.27,7.57c3.45,3.3,4.15,4.69,6.81,5.68.73.27,4.44,1.65,6.25,0,2.18-2,.06-7,1.14-7.38.62-.24,1.64,1.36,3.21,3.4a97,97,0,0,0,7.39,8c5.12,5.22,6.29,5.48,7.19,5.3a4.6,4.6,0,0,0,3.22-3.78c.46-3.2-3-5.4-7.76-11-4.59-5.39-3.29-5.8-6.06-8.33-4-3.62-6.39-3.06-12.68-6.62a50.91,50.91,0,0,1-10.22-7.77C689.37,70.4,684,62.92,684.87,62.07c.09-.1.48-.32,4.35,2.27,6.54,4.38,9.34,7.63,15.52,12.3,4.43,3.35,6.55,4.38,9.09,4.74,3.22.45,6.71-.24,7-1.52.34-1.52-4.09-2.75-4.73-6.62a2.66,2.66,0,0,1,.38-2.28c1-1,3.57-.29,5.11,1,2.1,1.7,2.09,4.28,2.65,6.82,1.38,6.27,5.84,10.4,8.7,13.06,4,3.75,5.28,2.62,12.31,8.14,4.2,3.3,7.15,6.35,6.62,7.19-.37.6-2.25-.42-5.87,0-1.84.21-3.29.38-3.78,1.32-1,1.84,2.8,4.58,1.89,6.25-.59,1.08-2.36.3-5.49,1.51-1.35.53-3.43,1.33-4.35,3s-.11,3.1,1.51,8.71c2.2,7.58,1.91,8.92,1.33,9.84-1.39,2.22-4.21,1.57-4.73,3.41-.67,2.34,3.69,4.25,3.21,7.19-.27,1.7-2,2.71-3.78,3.79-4.51,2.68-7.34,1.24-9.28,3.59a6.14,6.14,0,0,0-.75,6.06c.75,1.66,2.09,2,8.89,4.92,4.72,2,6.51,2.88,7.2,3.22a53,53,0,0,1,7,4c2.83,2,4.26,3,5.11,4.74s1.5,4.9,0,6.81c-.9,1.15-2.4,1.64-7.19,1.7-9.3.13-13.68-1.58-15,.38-.46.72,0,1.12.38,4.55.46,4.44-.21,5.23.19,7.38s1.5,3.08,6.25,8.33c4.33,4.78,2.62,3.22,8,9.08,6.11,6.73,7.36,7.69,8.7,8.52.39.24,7.67,4.66,10,2.46,1.83-1.71-1.12-5.71.75-7.76,2.46-2.69,9.52,2,11.93-.57,1.51-1.63.29-5.13-.95-8.71-2-5.66-3.86-5.92-4.73-10.22-.58-2.83.39-2,.19-9.27-.16-5.82-.24-8.73-.38-9.47-.34-1.78-.83-3.42,0-4.16.42-.37,1-.31,3.8,0,3.37.33,3.79.37,4.15,0,.7-.65.09-1.68.15-4.92,0-2.06.06-3.09.61-3.79,1.46-1.84,5.36-1,6.43-.75,3.48.76,5.86,2.57,8.9,4.92,4.15,3.21,4.65,4.61,7.19,5.11,2.84.55,3.4-.95,5.49-.19,2.81,1,2.54,4,6.63,8.33,1.31,1.39,3.36,3.56,4.54,3s1.35-3.36.38-5.49c-1.1-2.42-2.93-2.08-4.17-4.55s.17-3.9-1.13-5.3c-1.54-1.65-3.86-.1-6.82-2.08-1.43-1-1.19-1.53-2.46-2.08-2.13-.92-3.34.45-5.68,0-1.68-.32-1.58-1.14-4.92-3.6-3.65-2.69-6-3.37-5.86-4.54.09-.68.9-.61,2.08-1.89,1.6-1.76,1.39-3.32,2.08-3.41,1.13-.15,1.56,4.12,5.11,7.19,1.69,1.47,3.89,2.48,4.54,1.9s-.72-2.19-.19-4.74c0-.23.55-2.61,1.71-2.84s2.24,2.44,5.11,6.06a51,51,0,0,0,7.19,7c4.62,4,4.52,3.11,6.63,5.3,4.77,5,4.72,9.06,7.76,9.47a4.26,4.26,0,0,0,4.16-2.08c.57-1.19.2-2.64-1.14-5.11-2-3.79-3.85-5.41-6-8.14-.9-1.12-2.81-4.4-6.63-11-2-3.54-3-5.2-2.65-7.38.34-2.42,1.8-2.8,1.71-4.74-.1-2.15-2-2.8-5.87-7s-4.51-6.09-4.73-6.81-1.38-4.74.37-6.25c1.43-1.23,4.08-.25,4.93,0,3.62,1.09,10.38-.13,24.22-11.17L653.64,2.07"/><path class="cls-10" d="M833.83,128.45c-1.91,10-5.25,13.87-8.14,15.51a7.16,7.16,0,0,0-3.51,3.29c-.73,1.73-.34,3.52,1.2,7.48a57.48,57.48,0,0,0,4.84,10.44c1.87,3.05,1.88,2.4,6.71,8.91,4.27,5.76,5.55,8,6.92,7.69s1.85-2.89,2.2-4.73a25.47,25.47,0,0,0-.22-9.89c-.56-3.74,2-9.77,16.82-19.57Z"/><path class="cls-10" d="M679.12,103c-.45.29-.24,1.1-.3,2.64a25.12,25.12,0,0,1-.33,2.54c-.31,3.44,2.91,5.7,2.07,6.82-.64.86-2.29-.24-5.17.62-1.33.4-3.37,1.36-3.31,2.28,0,.71,1.34,1,5.17,2.28,6,1.92,6.56,2.27,7,2.89,1.92,2.49.7,6.59.41,7.45-1.05,3.2-2.88,3.57-2.69,5.38.24,2.22,3,2,6.21,5.59,2.82,3.13,2.3,5.11,5.17,6.82.49.3,3,1.81,4.76.83.68-.39.79-.91,2.07-4.55s1.43-3.86,1.24-4.55c-.5-1.83-2.4-1.69-3.72-3.73-1.42-2.19-1.4-5.7,0-6.62,2.12-1.39,8.28,2.68,8.06,5.8-.11,1.61-1.91,2.75-1.44,3.51s1.88-.2,3.1.62c1.41,1,.6,2.93,2.07,4.14,1.13.94,2.05.12,3.1.83,2.55,1.72-.29,8.23,1.66,9.31,1,.53,2.81-.38,3.51-1.66,1.05-1.9-.91-3.85,0-5,1.09-1.32,4.15,1.07,7-.42a6.31,6.31,0,0,0,2.9-4.13c.72-3.08-.73-6.83-2.9-7.45s-3.35,2.29-5.79,1.86-1.93-3.3-5.59-6.62c-2.75-2.49-4.09-1.85-7.66-5.17a19.92,19.92,0,0,0-2.89-2.69c-2.63-1.76-4-1.21-5.59-2.9-1.35-1.47-.65-2.3-2.07-3.52s-2.14-.57-4.34-1.86a8.86,8.86,0,0,1-2.9-2.48c-1.06-1.49-.63-2.11-1.65-4.55-.81-1.94-1.65-4.16-3.11-4.35-.77-.1-1.12.44-2.4.29C679.84,103.2,679.48,102.8,679.12,103Z"/><path class="cls-10" d="M299.77,69.42c2.47,0,6.4,0,11.23-.2,15-.74,22.3-2.92,23.83-.17.84,1.51-.43,3.83-3.35,7.84-7.17,9.83-13.63,15.29-18.66,20.14-7.57,7.3-12.47,13.74-17.9,20.89-5.06,6.66-8.08,10.62-11.57,16.79-5.33,9.42-5.1,12.18-10.07,18.65-3,3.87-6.09,6.56-12.31,11.94-12.24,10.57-14,9.73-17.91,14.55-1.69,2.08-4.14,5.66-8.2,25.74-3,14.9-2.46,16.81-5.23,31.71-3.5,18.87-6.34,30.21-6.34,30.21-3.19,12.77-4.94,17.06-3.36,23.88,2.28,9.75,9.63,17,10.82,16.41.69-.36-.7-3.35-2.24-10.82,0,0-1.25-6.12-1.86-12.68-1.53-16.49,8.45-34.85,10.44-34.32.37.1.49,1.3.74,3.72a28.69,28.69,0,0,1-.22,7.66c-.92,5.23-2.85,6.81-4.06,10.59-1.33,4.14-.21,9,2,18.7,1.58,6.87,2.29,7.46,3.83,14.87,1.27,6.09,1.9,9.13,1.58,11.72a74.71,74.71,0,0,1-3.38,13.52,10,10,0,0,0-.68,4.73,10.11,10.11,0,0,0,1.8,4.51c4,6,2.85,6.66,7.44,13.07,3.51,4.88,5.8,8.08,10.14,11.26A37.51,37.51,0,0,0,267.8,370c4.64,1.42,6.95,2.13,9.92,1.57,2.55-.48,4.16-1.57,5.4-.67s.59,2.62,1.58,5.4c.69,1.93,1.53,2.59,3.38,5,3.88,5,3.29,6,6.31,9.69,2.23,2.69,3.85,4.64,6.53,5.86,6.59,3,13-1.38,15.1,1.58.93,1.28-.23,2.14.9,4.73s2.59,2.71,4.06,5.18a13,13,0,0,1,1.58,5.41c.79,6.33-2.17,9.46-.45,11.27,1,1,2.08.14,5.85.9,2,.41,4.74.95,6.76,2.7,3.07,2.65,1.4,5.3,4.74,9.69,1.66,2.19,1.85,1.23,5.18,4.73s4.05,5.47,6.53,6.09c1.48.36,3.65.28,4.51-.91s-.22-2.19,0-5.4c.11-1.69.21-3.21,1.35-4.29a3.75,3.75,0,0,1,3.83-.9c1.11.54.84,1.62,2.48,4.06a7.91,7.91,0,0,0,2.25,2.48c.46.29,2.69,1.72,4.06.67,1.12-.85.66-3.07.45-4-.53-2.54-1.65-3-2.93-5.64-1.78-3.73-.62-5-2.25-6.53a6.34,6.34,0,0,0-6.76-.68,8.84,8.84,0,0,0-3.16,3.38c-1.21,1.94-1,2.8-2,3.38a4.15,4.15,0,0,1-4.51-.67c-2-1.81-.69-4.83-2.48-5.86-1.05-.6-1.66.34-3.38,0-2.21-.43-3.54-2.46-5.18-5a17.48,17.48,0,0,1-2.71-5.63c-.48-1.91-1.36-5.34.23-8.34s3.74-2.35,5-5.18c.77-1.79,0-2.32,0-6.76,0-5.56,1.16-6.75,0-8.56-.63-1-2.46-1.64-6.09-2.93-4.13-1.47-6.19-2.2-8.79-2.48s-2.85.15-6.53-.23c-4.71-.48-5.76-1.35-6.31-2a4.71,4.71,0,0,1-.9-4.06c.53-1.81,2-1.69,3.61-3.83,1.39-1.91.55-2.52,2-5.63,1.36-2.86,2.17-2.57,3.16-5.19a22.23,22.23,0,0,0,1.12-4.95c.39-2.76.06-3.22.68-4.06,1.19-1.62,3.08-.8,4.28-2.48.47-.66.54-1.64.68-3.6.18-2.72.28-4.07-.23-4.73-1-1.35-3.63-.92-8.79,0-5.57,1-6.15,1.83-9.68,1.8-2.2,0-2.8-.35-3.61.22-2.15,1.52.24,5.13-2,9.24-1.21,2.2-2.25,1.82-4.28,5.18-1.1,1.83-1.21,2.64-2.25,3.16-1.89.94-4.4-.29-5.64-.9-1.44-.72-1.54-1.11-3.52-2.42-2.79-1.84-3.18-1.44-4.94-2.68a15.71,15.71,0,0,1-4.93-6.22c-.46-.95-.25-.73-1.71-5.26s-1.75-5-2.26-7.07c-.67-2.8-1-4.2-.85-5.58.34-3.14,2-3.65,1.93-6.75,0-1.87-.61-2.42-.11-3.76.62-1.64,1.81-1.59,2.36-3.21s-.54-2.32,0-4,1.74-1.38,3-3.33a10.5,10.5,0,0,0,1.39-5.14c.18-2.38-.36-3.23.43-4.4.69-1,1.44-.89,1.93-1.93.6-1.27-.22-2.07,0-3.32.34-1.84,2.53-2.41,5.36-4.19,3.37-2.11,2.64-2.79,6-5.14a20.54,20.54,0,0,1,9-4,18.4,18.4,0,0,1,9,.86c3.24,1.18,4.2,2.68,6.76,2.57,2.07-.09,2.71-1.12,4.93-2.14,1.43-.66,2.7-.95,15.44-.11,4.89.32,6.23.46,7.62,1.61,2,1.64,1.75,3.44,3.75,4.39,2.67,1.28,4.58-1.22,6.65,0s.54,4.18,3.43,8.15c1.15,1.58,2,1.91,2.36,3.43a7,7,0,0,1-.86,4.94c-1.32,2.21-2.78,1.83-3.75,3.86a6.5,6.5,0,0,0,0,5c.65,1.43,1.34,1.27,2.89,3,2.34,2.6,1.87,4.19,4.4,6.86.88.93,2.14,2.27,3,1.93.67-.26.76-1.39,1-5,.35-6.15.3-6.36.53-7.29.9-3.58,2.38-3.58,2.36-5.9,0-3-2.46-3.07-3.21-6.75-.66-3.21,1-4.22,0-7.83-.59-2.21-1.29-2.17-1.4-3.75s.54-2.88,3.54-7.08a65.68,65.68,0,0,1,5-6.65,23.76,23.76,0,0,1,7.08-5.25c2.79-1.29,3.36-.76,9-2.47a34.48,34.48,0,0,0,6.33-2.25c1-.57,6.53-3.56,8.26-9.22.29-.95.3-1.4,0-9.22-.31-8-.4-9.45.75-10.51,1.8-1.67,4,0,8-1.29,3.32-1.08,5-3.26,6.76-5,5.31-5.33,7.73-3.22,17.15-9.11,3.18-2,7.66-5.58,16.62-12.77a48.26,48.26,0,0,1,7.62-4.71c1.73-.87,6.09-3,6.75-2.15.5.67-1.13,3-2.78,4.51-2.79,2.55-5.2,2.44-5.9,4.61a2.75,2.75,0,0,0,.32,2.68c1,.89,3.33-.06,8.58-2.9,7.35-4,6.55-4.14,9.33-5.36,7.1-3.11,11.35-1.57,13.29-4.93.95-1.64,1.06-3.95.11-4.72-1.22-1-4.16.57-8,2.68-4.8,2.61-6.14,4.18-7.72,3.54-1.1-.45-.74-1.32-3.22-4.5-1.51-1.94-2.07-2.16-2.25-3.22-.27-1.56.61-2.93,1.61-4.51,1.43-2.24,2.19-2.18,3.11-4,.84-1.63,1.57-4.32.64-5s-2.83,1.79-7.29,2.57a16.46,16.46,0,0,1-7-.43c-1.72-.4-3.6-1.08-3.54-1.5s2.55.2,4.61-1.18c1.74-1.16,1.57-2.71,2.68-4,1.83-2.06,5.29-1.26,11.48-.43,13.7,1.84,17,.64,18.22.11,2.5-1.08,4.39-1.89,6-3.86,1.05-1.27,1.34-2.25,2.57-2.79,2-.88,5,.09,5.26,1.4.25,1.16-1.81,1.68-4.4,4.82a19.94,19.94,0,0,0-3.54,6.76c-.6,2-1.08,3.78-.21,5.25.19.32.87,1.36,3.64,2.15,3.63,1,5.82.21,12.23.43,2.38.08,3.19.23,3.86.85,1.91,1.78.35,5.15,1.71,5.9s4-1.25,5.26-3.64c1-1.83,1.41-4.72,0-6.54s-3.49-1-4.61-2.69c-1.47-2.24.9-5.45-.11-6.21-1.27-1-4.9,4.09-8,3.1-2.18-.68-3.49-4.06-3.22-6.64.17-1.65.86-1.81,1.82-4.29a15.76,15.76,0,0,0,1.18-8.15,11.84,11.84,0,0,0-3.21-6.76c-1.3-1.28-3.16-2-6.87-3.43-4.27-1.65-5.4-1.51-7.18-3.11a22.59,22.59,0,0,0-2.9-2.68c-1.59-1.11-2.68-1.4-2.68-2s1.6-.76,2.68-2a5.38,5.38,0,0,0,0-6.44c-1.57-1.72-4-.51-4.93-2s1.1-2.92.43-5.46c-.36-1.39-1.49-3-2.89-3.22-1.79-.23-3.47,2-5.47,4.61-2.34,3.07-2.31,4.2-3.86,4.82-2.36,1-5-.59-5.58-1a7.33,7.33,0,0,1-3-3.54c-1.46-3.89,1.79-6.95.21-8.9-1.2-1.48-3.47-.19-4.82-1.82-1.52-1.84.55-4.45-.86-6-.86-.94-2-.36-6.65-.32s-5.7-.53-7.83.43a6.06,6.06,0,0,0-3.21,2.68c-.71,1.46-.1,2.33-.11,5.58,0,3,0,4.47-.86,5.25-1.92,1.76-5.88-1-7.29.64-.77.91-.44,2.73.32,3.76s1.62.77,2.47,1.61c1.61,1.59,1.08,5.08,0,7.29s-2.81,3.31-4.83,4.61a27.65,27.65,0,0,1-6.86,3c-5.05,1.66-5.74,1-6.65,2.15-1.66,2.06.53,4.42-.32,10.83-.49,3.64-1.43,4.62-1.93,5a5.54,5.54,0,0,1-6.22.43,6.28,6.28,0,0,1-2.36-4c-.67-2.42.09-3-.11-7.62-.11-2.61-.38-2.88,0-3.75.86-2,2.75-1.9,3.54-4,.35-.92.58-2.53-.21-3.32-1.09-1.08-2.89.57-5.69-.22-1.18-.33-1.12-.69-4-2.57-3.35-2.2-3.52-1.76-4.83-2.89-2.93-2.56-1.67-4.48-4.07-6.12-2-1.34-3.15-.27-7.3-2-1.67-.71-2.92-1.26-3-2.15-.14-1.51,3.33-1.76,4.51-4.5s-1.2-4.33,0-6.76c.79-1.61,1.93-1.1,5-3.43,2.59-1.94,2.42-2.76,5.68-5.36,1.83-1.46,2.75-2.2,4-2.57,2.2-.69,2.92.15,6.43-.22,2.31-.24,4.08-.42,5-1.71s.08-2.7,1.07-3.65c1.19-1.14,2.92.4,6.22-.11,1.69-.26,3-1,5.69-2.46,3-1.64,4-2.7,4.39-2.36.59.48-.52,3.29-2.14,5.47-1.75,2.34-3.35,2.94-3.11,3.86s2.41,1.38,4,1.28c2-.12,2.17-1,4.29-1.5,3.22-.77,4.78.7,5.9-.43a3,3,0,0,0-.11-4c-1.27-1-3.42.89-4.39,0s-.37-3.34,1.07-4.94,2.76-1.08,6.22-2.36c2-.75,5.43-2,7.51-4.93,1.51-2.13.74-2.92,2.46-5.25.8-1.08,2.51-3.4,5.26-3.86,3-.51,5.43,1.44,7.29,2.89a16.73,16.73,0,0,1,4.5,5.69c.87,1.77,3.24,6.58,1.4,8.79s-5.56-.15-7.62,2.25c-1.26,1.48-1.08,3.8-.64,5.15.58,1.79,1.66,2.09,3.64,4.18,3.63,3.81,2.72,5.64,5.47,7.4,1.8,1.15,3.54,1.24,6.44,1.39,3.26.17,5.95.32,8.15-1.5,1.42-1.18,3.05-3.52,2.57-5.68s-2.36-2.13-3.65-5c-.77-1.76-1-3.87-.42-4.18s1.63,1.8,4.29,2.78c1.56.58,4.13.92,5.25-.32.81-.89.22-1.91.11-5.25-.17-4.64.87-5.32,0-6.54-1.23-1.72-3.44-.61-7.72-2.58-1.58-.72-4.08-2.16-3.86-3,.33-1.28,6.52.54,8.68-2.47a2.75,2.75,0,0,0,.5-2.61c-.35-.68-1.26-1-5.68-1.26s-5.91.07-6.48-.86c-.78-1.24,1-3,.28-3.9-1-1.14-4.64,1.5-6.31.06-.52-.45-.6-1.09-.74-2.3-.43-3.51,1.2-4.94.46-6.19-.47-.79-1.48-.83-6.77-.92-4.53-.07-6.8-.11-7.63,0a33.09,33.09,0,0,0-7.81,2.18c-3.64,1.34-5.47,2-6.19,3.44-1.05,2-.3,4.69,0,5.74.71,2.51,1.78,3,1.49,4.19-.45,1.86-3.54,3.37-5.85,2.69-1-.29-2-1.51-3.9-4-.81-1-1.11-1.51-1.15-2.18,0-.24,0-1.07,1.32-3a19.09,19.09,0,0,1,1.89-2.29c3.4-3.62,2.93-3.32,3.5-3.79.35-.28.87-.68,5.22-2.87,3.2-1.6,3.78-1.82,3.73-2.12s-.76-.41-8.09-.52c-2.43,0-4.76,0-5.28,1.09a3.84,3.84,0,0,0-.18,1.3c-.08,1.53.31,1.88.07,2.26-.47.73-2.17-.17-4.82,0a7.87,7.87,0,0,0-4,1.09c-2.12,1.41-1.55,3.19-3.38,4.08s-3.93,0-5.05-.81c-.52-.36-1.32-.93-1.38-1.78s.5-1.24,1.72-2.52c2.47-2.59,2-2.37,2.64-2.87,2.51-2,5-1.61,5-2.52,0-.5-.69-.62-2.07-2s-1.35-2.1-2.06-2.35c-2-.71-4.62,3.29-5.57,2.69-.4-.26,0-1,0-3.38s-.44-2.68,0-3.44c.68-1.16,2-.75,2.7-2a2.68,2.68,0,0,0-.11-2.92c-.9-1-2.84-.51-5.05.06a31.21,31.21,0,0,0-5.86,2.29c-3.45,1.67-3.46,2.06-4.93,2.3a22.19,22.19,0,0,1-4.82,0c-2.29-.17-3-.44-3.33,0-.57.75.44,3,2.18,4.18,2.33,1.55,5.26.66,5.4,1.32.1.48-1.5.66-2.41,2.13-1.06,1.69-.06,3.28-1,4-.56.42-1,0-3.16,0-1.51,0-2.34,0-3.1.58-.6.41-.53.71-1.6,2.29s-1.57,2.29-2.13,2.24-1.18-1.12-1.32-2c-.16-1,.31-1.29.46-2.87a4.72,4.72,0,0,0-.11-2.24,5.11,5.11,0,0,0-2.53-2.47c-1.3-.72-2.15-.7-2.18-1.09s1.21-1.06,2.36-1.26c1.79-.31,2.51.48,3.49-.11.64-.38.42-.76,1.32-1.84,1.18-1.4,2.15-1.47,2.13-2.12,0-.4-.38-.54-1.95-1.72s-1.6-1.35-1.95-1.44c-1.52-.37-3.17,1.14-4.25,2.13-1.58,1.44-1.55,2.13-2.81,2.69s-2.76.62-3.21,0c-.25-.37,0-.68.11-1.78.14-1.83-.5-2.36-.11-2.87.66-.88,2.66.6,4.24-.4,1.05-.66.56-1.54,1.78-2.81,1.38-1.44,2.47-.8,3.61-2.13.5-.58.74-1.66,1.21-3.84.42-1.92.62-2.9.4-3.67-.35-1.24-1.26-1.92-2.52-2.87-1.78-1.33-3.52-2.65-5.85-4.42Z"/><path class="cls-10" d="M506.05,49.1A22.5,22.5,0,0,1,503,51.55c-1.88,1.09-2.61.87-3.66,1.83s-2.25,3.1-1.63,4.47c1.06,2.35,6.66,1.73,7.53,1.63,2.94-.32,3.28-1.18,6.31-1.42,2.37-.19,4.79-.39,6.1,1,1.59,1.7-.3,3.74,1,7.53a11,11,0,0,0,4.48,5.7c1.78,1,2.73.73,4.88,2.24,1.2.85,2.68,1.89,2.65,3.26s-1.57,2.66-2.85,3a9.85,9.85,0,0,1-3.33.14c-.94-.1-1.5-.28-2,.07a1.6,1.6,0,0,0-.73,1.61c.32,1,2.58,1.25,4.87,1.44,3.43.27,5.08-.16,5.29.4s-1.53,1.92-2.85,2.65c-2.72,1.49-4,.78-6.11,2.24a5.73,5.73,0,0,0-2.64,3.25c-.17.73-.18,1.82,2.44,5.9a34.72,34.72,0,0,0,5.09,6.72c2.22,2.22,2.49,1.82,5.08,4.27s2.5,3,5.5,6.11,4.49,4.62,6.31,5.09c3.24.83,4.65-1.2,7.12,0,2.76,1.33,2.83,4.76,4.27,4.68,1.63-.09,2.58-4.54,2.65-4.89.75-3.66-.51-4.7-.2-8.14.14-1.59,1.24-3.91,3.45-8.54,3.08-6.45,3.91-7,4.69-7.33,2.36-.92,3.64,1,6.71,0,.27-.09,3.41-1.14,4.48-3.87s-1.08-4.51,0-6.1c1.32-2,5,.09,10-1.83,2.76-1.07,5.8-3.3,5.49-4.89-.24-1.28-2.63-2-7.12-3.25-3.51-1-5.06-1.1-5.29-2s1.32-2.69,3-3.25,2.53.22,6.17.63c1.08.12,4.79.54,5-.23.17-.59-1.78-1.77-3.26-2.44-4.23-1.91-7.27-.86-7.73-2-.59-1.47,4.1-3.27,4.07-6.71,0-2.07-1.74-3.63-2.45-4.27-2.07-1.9-3.82-1.59-7.12-2.85a18.89,18.89,0,0,1-7.32-4.68c-3.38-3.79-1.78-6.65-4.68-9.16-1.48-1.28-2.58-1.14-9.77-1.83-11.23-1.08-11.25-1.66-14.65-1.22s-7,.9-10.59,3.25c-3,2-3.8,3.8-6.51,4.07s-3.74-1.56-6.51-1c-2.26.45-1.94,1.74-5.29,3.46S508.74,47.09,506.05,49.1Z"/><path class="cls-10" d="M608,90c-1-.18-4.62-.79-5.11.28-.2.43.31.72.64,2,.42,1.68-.22,2.2.18,2.92.7,1.29,3,.18,6,1.37,1.71.67,1.39,1.16,4.29,2.83a20.45,20.45,0,0,0,4.84,2.19c2.09.61,4.16,1.21,6.39.46.77-.26,2-1.3,4.38-3.38,2.89-2.5,3.19-3,3.19-3.65,0-1.41-1.53-2.82-3-3.28-1.65-.52-2.75.32-3.38-.37-.79-.86.65-2.51-.09-3.47s-2,.1-5.84,0c-2,0-2.79-.35-3.56.28-1,.8-.48,1.93-1.46,2.64-.31.23-.87.49-3.74,0C609.74,90.5,609.56,90.28,608,90Z"/><path class="cls-10" d="M589,28.88c-.08,1.22,5,2.25,4.76,3.39-.14.84-2.93.55-3.38,1.88-.3.88.57,2.12,1.5,2.75,1.47,1,2.7.25,5,.5,1.92.21,1.82.8,5.89,2.51,3.55,1.48,6.31,2.6,7.52,1.5a6.7,6.7,0,0,0,.75-2.5c.54-2.44.8-3.67.5-4.14s-.85-.79-4.88-.88c-4.23-.09-4.61.27-5.52-.25C599,32.41,600,29.71,598,28,595.15,25.6,589.07,27.57,589,28.88Z"/><path class="cls-10" d="M433.79,729.61c1.55,5.15,3.18,5.68,6.43,14.36,2.86,7.65,1.78,7.74,3.64,10.92,4.21,7.2,11.8,10.24,16.71,12.21,3.91,1.57,7.82,2.26,15.63,3.64,7.47,1.32,14,2,14.14,1.28s-4.86-1-9.64-5.14c-1.24-1.07-5-4.39-5.57-9.42-.15-1.37-.46-4,1.07-5.36,2.2-1.92,6.45.37,7.07-.85.4-.78-.92-2.47-2.36-3.43-2.26-1.51-3.91-.56-5.14-1.93s-1.26-3.66-.21-4.71c1.72-1.73,5.64,1.3,7.5-.43.84-.79.26-1.63.85-6.64.44-3.67.89-4.43,1.29-4.92,1.35-1.68,2.78-1.13,3.85-2.57,1.67-2.23-.73-4.9.43-6.43,1.69-2.21,7.66,2.1,16.5,1.28,2.43-.22,8.14-.75,9.85-4.49a7,7,0,0,0-.64-6.43c-1.74-2.7-4.16-2-8.79-4.93-2.11-1.32-6.51-4.09-6.21-7.28.19-2,2.22-4,3.86-3.85,1.93.2,1.86,3.31,4.71,6.21,2.1,2.13,4.54,2.77,9.42,4.07,5.82,1.54,8.72,2.31,11.36,1.5,4.19-1.29,4-4.47,9.85-10.71,1.52-1.62,5.3-4.51,12.85-10.28,9.34-7.14,10.25-7.5,11.14-9.64,2.38-5.75-1.76-9.06,1.07-14.57,1.08-2.09,3.5-3.82,8.35-7.28s7.44-5.3,10.71-6c4.48-.95,5.2.79,10.93,0a24,24,0,0,0,9.64-3.21c2.46-1.52,4.74-4.46,9.21-10.28,3.7-4.83,5.56-7.28,6-9,1.16-4.58-.83-6.72,1.07-10.71,1.51-3.14,3-2.46,4.5-5.35,1.85-3.68-.07-5.91,0-14.14,0-5,.12-8,2.14-9.42,2.25-1.59,4.56.49,7.07-1.07s1.45-4.28,3.43-9c1.61-3.83,4.21-6.34,9.42-11.35,4.83-4.64,5.6-4.24,6.86-6.64,3-5.68.88-12.12.43-13.5a15.7,15.7,0,0,0-4.29-7.28c-1.39-1.25-2.43-1.64-10.71-4.71-4.18-1.56-6.3-2.35-7.28-3-4.22-2.8-3.61-5-6.64-7.07s-7.86-1.38-17.35,0c-4.94.72-7.36,1.41-11.78,1.07-3.19-.24-5.81-.48-7.92-2.35-2.92-2.58-1.41-5.19-4.07-7.93-3.37-3.45-9.36-3-11.57-2.78-4.91.4-5.56,2.21-10.28,2.14-2.39,0-5.86-.09-7.93-2.36-2.21-2.42-.4-4.74-1.71-10.71-.65-3-2.08-5.69-4.93-11.13-3-5.65-3.79-6-4.71-9.22-1.39-4.87-.12-6.39-1.71-7.92-3-2.93-8.9,1.46-12.64-1.71-2.14-1.82-.9-3.84-3-5.57-2.52-2.08-5.73-.35-13.92.64-7.49.9-11.29,1.31-13.92-.86s-1.13-4.23-4.29-9.42a28.16,28.16,0,0,0-8.14-8.35c-5-3.57-6-2.13-9.64-5.36-3.41-3-3.38-4.93-7.49-7.92-2.54-1.85-4-2.93-6-2.79-3.8.28-4.35,4.75-8.57,5.57-2.08.4-2.53-.57-7.49-1.93-6.39-1.75-6.93-.49-10.93-1.93-5.87-2.1-4.9-4.88-10.28-6.64s-8.43.5-11.35-2.14c-2.56-2.31-1.71-5.31-3.64-6-2.23-.79-4.21,2.87-9,6.42-6.86,5.08-9.87,2.82-18,8.35-3.86,2.64-6.4,4.37-7.93,7.72-2.14,4.69.1,7.37.65,16.92.38,6.58.68,11.81-1.72,17.56-3,7.19-8.83,11.91-10.28,13.07-4.79,3.8-6.89,3.39-9.21,6.85-.7,1.05-1.92,3.19-2.57,12.64-.38,5.49-.3,9.49-.21,14.56.26,15.75-.06,15,.21,16.28,1.51,7.14,5.25,8.07,14.14,19.28,6.11,7.7,10.52,15,17.56,26.77,4.48,7.46,6.18,10.86,10.71,15.21,4.32,4.14,8.44,6.48,13.71,9.42,13,7.25,17.25,6.31,20.78,11.36,2,2.89,1.59,4.61,1.92,18,.44,17.46,1.17,14.52,1.5,33.41.19,10.68-.06,10.74.22,19.92.37,12.47.83,12.17.85,20.35C433.41,723.58,432.26,724.53,433.79,729.61Z"/><path class="cls-10" d="M397.91,380.16c-1-1.06-.76-3.38.39-4.64,2.05-2.26,5.76.32,8.33-1.75,2.79-2.24.71-7.14,2.91-8.33,1.68-.91,3.95,1.42,7.55,3.49,9,5.19,17.07,3.35,17.24,5.23.16,1.61-5.7,3.76-10.46,4.65-7.62,1.42-8.93-1.06-16.85.39C402.15,380.08,399.23,381.64,397.91,380.16Z"/><path class="cls-10" d="M346.38,337.54c-1.72.21-4.11,1.18-4.26,2.52-.18,1.59,2.82,3.08,7.16,5.23,3.28,1.63,5,2.44,7,2.33,2.48-.14,3.12-1.29,5.23-1s2.23,1.43,4.84,3.1c3.87,2.47,5.18,1.18,8.72,3.68a10.2,10.2,0,0,1,4.07,4.46c1,2.36.12,3.73,1.16,4.84,1.26,1.34,3.68.59,7.17,0,8.63-1.47,12.56-.1,13-1.55.47-1.61-4.09-4.28-7.36-6.2-5.39-3.16-6.7-2.76-12.21-5.62-5.84-3-5.61-4.12-12.2-7.36-6.35-3.12-8.9-3.27-9.69-3.29-2.83-.1-3.9.64-7,0C349.41,338.17,348.47,337.29,346.38,337.54Z"/></g><path class="cls-11" d="M849.26,729.11c-89.85,87.44-215.79,138-353.35,127.18C274.58,838.92,97.56,662.05,80,440.74,69,303.05,119.59,176.94,207.13,87a6.17,6.17,0,0,1,8.79,0l19.28,19.27a6.19,6.19,0,0,1,0,8.7A413,413,0,0,0,118.34,390.77c-7.25,238,189.07,434.36,427.1,427.11A413,413,0,0,0,821.3,701a6.18,6.18,0,0,1,8.69,0l19.3,19.3A6.18,6.18,0,0,1,849.26,729.11Z"/><path class="cls-12" d="M850.66,727.93a6.29,6.29,0,0,1-.95,1.19c-89.86,87.44-215.79,138-353.36,127.17C275,838.92,98,662.05,80.42,440.74,69.9,308.31,116.27,186.58,197.71,97.43,124.14,185.2,83.1,301.13,93.07,426.67c17.63,221.74,195,399,416.73,416.36C641,853.33,761.71,807.92,850.66,727.93Z"/><path class="cls-11" d="M380.4,948.83H629.46A59.57,59.57,0,0,1,689,1008.4v0a4.59,4.59,0,0,1-4.59,4.59h-359a4.59,4.59,0,0,1-4.59-4.59v0a59.57,59.57,0,0,1,59.57-59.57Z"/><path class="cls-5" d="M749.55,172.46q-4.35,3.06-8.71,6.17,3.07-3.36,6.38-6.61c.46-.3.9-.63,1.36-1Z"/><path class="cls-13" d="M821.91,281.2l-1.69.85q-5.91,2.19-11.82,4c4.26-2.13,8.5-4.23,12.75-6.34Z"/><path class="cls-14" d="M753,367.42q6.13-5.12,12.36-10.48,7.9-6.84,15.41-13.6L794.54,329q3.53-20.55,7-41.08l-5.38,1.33-7.44,36.79L753,367.42"/><path class="cls-14" d="M643.78,191.83l52.3-20.72L736,184,733.52,187l-37.47-12.3-52.27,17.18"/><path class="cls-15" d="M698.26,280.14c-.14,0-.26,0-.39,0a1.2,1.2,0,0,1-.74-.17Z"/><path class="cls-16" d="M757.77,192.74l-61.88-19-52.11,18.12a1.27,1.27,0,0,1,.5-.47l50.35-26.1a1.35,1.35,0,0,1,1-.08l63.46,19.52Z"/><path class="cls-14" d="M751.66,230.89,688,190.72a1.41,1.41,0,0,0-.78-.19c-14,1.05-27.9,2.15-41.84,3.22l-1.13-.15a1.29,1.29,0,0,1-.44-1.77l52.11-18.12,61.88,19Z"/><path class="cls-16" d="M802.58,264.77q-5.12,32-10.28,63.92Q772.67,348.07,753,367.42a1.24,1.24,0,0,0,.65-.24l45.66-33.63a1.32,1.32,0,0,0,.51-.83q5.26-32.76,10.54-65.56Z"/><path class="cls-14" d="M765.66,253.39q3.95,37.46,7.88,74.88a1.45,1.45,0,0,1-.17.79c-7.11,12-14.27,24.08-21.38,36.1l-.37,1.09a1.27,1.27,0,0,0,1.39,1.17q19.63-19.35,39.29-38.73,5.15-32,10.28-63.92Z"/><path class="cls-17" d="M695.9,315.36c2.75-3.17,5.46-6.34,8.17-9.51a97.4,97.4,0,0,1-13.87,11.31,100.3,100.3,0,0,1-18,9.58l6.23-6.91a61.85,61.85,0,0,1-26.52,10.9,51,51,0,0,1-10.71.41,22.12,22.12,0,0,0,6.87-5.37,19.24,19.24,0,0,0,2.62-4,90.78,90.78,0,0,1-14.94,6.84,82.77,82.77,0,0,1-23.6,4.66,82.86,82.86,0,0,1,14.61-19.11,91.24,91.24,0,0,1,12.74-10.38,19,19,0,0,0-4.76.58,22.44,22.44,0,0,0-7.85,3.78,51.31,51.31,0,0,1,5.1-9.42,62,62,0,0,1,21.5-19l-8.95,2.54a100.33,100.33,0,0,1,16.54-11.89A96.59,96.59,0,0,1,677.38,263c-4,1-8.09,2.06-12.14,3.12a53.23,53.23,0,0,1,10.35-6.82,51.22,51.22,0,0,1,22.47-5.47l24.15,35.9a51.22,51.22,0,0,1-15.61,19.41A53,53,0,0,1,695.9,315.36Z"/><path class="cls-18" d="M702.11,303a83.4,83.4,0,0,1-14.19,9.36q2.3-3,4.56-6.12a107.52,107.52,0,0,1-24.25,13.63,101.59,101.59,0,0,1-10.9,3.68c1.51-1.93,3-4,4.54-6.11,2.59-3.63,4.87-7.14,6.89-10.46a125.79,125.79,0,0,1-16.1,7.63,119.28,119.28,0,0,1-20,5.9,119.54,119.54,0,0,1,14.16-15.36,125.5,125.5,0,0,1,14-11.06c-3.89.33-8,.83-12.45,1.54-2.58.42-5.08.88-7.48,1.38a100.24,100.24,0,0,1,8.12-8.15,107.38,107.38,0,0,1,22.94-15.74l-7.5,1.39A83.74,83.74,0,0,1,679,266a80.64,80.64,0,0,1,12-4.36c-1.61-.93-3.22-1.88-4.81-2.83a31.55,31.55,0,0,1,8.34-2.29,27.93,27.93,0,0,1,7.1,0A33,33,0,0,1,715.36,268a32.69,32.69,0,0,1,5.27,19,27.49,27.49,0,0,1-3.17,6.35,32.42,32.42,0,0,1-5.73,6.49c-.16-1.85-.28-3.71-.42-5.58A81,81,0,0,1,702.11,303Z"/><path class="cls-19" d="M697.45,293.64c.46-.91.89-1.79,1.33-2.69a67.1,67.1,0,0,1-17.51,8.62,61.51,61.51,0,0,1-19.78,3,61.51,61.51,0,0,1,11.44-16.43,67.86,67.86,0,0,1,15.48-11.89c-1,0-2,0-3,0-2.08,0-4.13,0-6.15.09a98.86,98.86,0,0,1,12.91-6.8,94.44,94.44,0,0,1,22.09-6.5A11.6,11.6,0,0,1,722,273.58a92.59,92.59,0,0,1-15.59,16.94,96.83,96.83,0,0,1-11.81,8.58C695.59,297.32,696.52,295.5,697.45,293.64Z"/><path class="cls-20" d="M871.34,137.88l3.13,6,16.17-4.67c-1-1.89-2.06-3.79-3.1-5.68l-16.2,4.38"/><path class="cls-5" d="M873,141.1c-2.74.9-5.52,1.86-8.31,2.87-1.14.4-2.29.83-3.45,1.27s-2.27.85-3.41,1.31a4.71,4.71,0,0,0-.59.22c-1.63.64-3.26,1.29-4.91,2-.41.15-.8.32-1.19.49-.73.29-1.44.59-2.16.9-1.56.66-3.12,1.34-4.7,2s-3.14,1.39-4.72,2.14c-1.24.58-2.5,1.15-3.74,1.75l-.37.18c-1,.48-2,1-3,1.48-2,1-4,2-6.08,3.08l-.93.49c-1.32.69-2.67,1.41-4,2.14q-4,2.19-8.07,4.55c-.68.41-1.39.81-2.09,1.22l-.39.24a2.49,2.49,0,0,1-.32.2c-1.66,1-3.35,2-5,3.08l-1.93,1.2c-1.23.78-2.45,1.57-3.65,2.36l-.11.05v0c-2.24,1.46-4.42,2.94-6.58,4.43l-2.73,1.92-2.31,1.65-.81.58c-.75.54-1.48,1.08-2.21,1.63l-3,2.22c-1,.73-2,1.48-2.91,2.23s-2,1.51-2.9,2.27q-5.25,4.18-10.11,8.41c-1,.88-2,1.78-3,2.67-1.51,1.32-3,2.66-4.42,4s-2.85,2.66-4.24,4q-6.63,6.33-12.4,12.58c-1.49,1.6-2.94,3.16-4.33,4.74l-.59.66-.14.15-.49.56c-.51.56-1,1.12-1.51,1.7-.22.26-.45.49-.65.75q-1,1.2-2.07,2.43c-3.43,4-6.61,8-9.55,11.78-.57.77-1.17,1.53-1.73,2.28l-.61.81c-.36.48-.71,1-1.07,1.43-.85-1.37-1.7-2.73-2.55-4.11l-10.29-16.56c.14-.34.27-.69.43-1a151,151,0,0,1,10.53-21.11,180.05,180.05,0,0,1,17-23.8c1.89-2.24,3.84-4.46,5.88-6.64a2.77,2.77,0,0,1,.34-.35q4.35-3.1,8.71-6.17l-1-1.39c-.46.32-.9.65-1.36,1a215.37,215.37,0,0,1,36.81-29c24.38-15.25,50.72-25.07,76.11-29.13C863.76,122.5,868,131.62,873,141.1Z"/><path class="cls-13" d="M918.53,207.77c-14.66,20.7-34.75,39.74-58.78,54.79a216.31,216.31,0,0,1-39.53,19.49l1.69-.85-.76-1.51c-4.25,2.11-8.49,4.21-12.75,6.34-.38.12-.75.22-1.12.32q-4.26,1.27-8.55,2.33a178.54,178.54,0,0,1-28.87,4.75,151.26,151.26,0,0,1-23.59.12l-1.12-.09-10.29-16.54-5.4-8.69h0c-1.17-1.92-2.36-3.82-3.55-5.72s-2.36-3.81-3.55-5.71c-1-1.53-1.9-3.06-2.85-4.57.36-.47.71-.95,1.07-1.43l.61-.81c.56-.75,1.16-1.51,1.73-2.28,3.71-4.8,7.8-9.81,12.27-15,.51-.58,1-1.14,1.51-1.7l.49-.56.14-.15c1.59-1.78,3.24-3.58,4.92-5.4q5.79-6.24,12.4-12.58c1.39-1.35,2.8-2.67,4.24-4s2.91-2.67,4.42-4c1-.89,2-1.79,3-2.67q4.88-4.23,10.11-8.41c1-.76,1.92-1.51,2.9-2.27s1.94-1.5,2.91-2.23l3-2.22c.73-.55,1.46-1.09,2.21-1.63l.81-.58,2.31-1.65,2.73-1.92c2.16-1.49,4.34-3,6.58-4.43v0l.11-.05c1.2-.79,2.42-1.58,3.65-2.36l1.93-1.2c1.68-1.06,3.37-2.07,5-3.08a2.49,2.49,0,0,0,.32-.2l.39-.24c.7-.41,1.41-.81,2.09-1.22q4.05-2.37,8.07-4.55c1.32-.73,2.67-1.45,4-2.14l.93-.49c2-1.06,4.06-2.09,6.08-3.08,1-.49,2-1,3-1.48l.37-.18c1.24-.6,2.5-1.17,3.74-1.75,1.58-.73,3.16-1.45,4.72-2.14s3.14-1.38,4.7-2c.72-.31,1.43-.61,2.16-.9.39-.17.78-.34,1.19-.49,1.65-.68,3.28-1.33,4.91-2,1.34-.53,2.66-1,4-1.53,1.16-.44,2.31-.87,3.45-1.27,2.79-1,5.57-2,8.31-2.87,3.53,6.74,7.45,13.67,11.8,20.71l.83,1.35c1.27,2,2.55,4.05,3.86,6A349.67,349.67,0,0,0,918.53,207.77Z"/><path class="cls-5" d="M945.34,126.24a320.14,320.14,0,0,0-56.3,10l0,0c-.76-1.43-1.53-2.85-2.26-4.25-1.36-2.58-2.65-5.13-3.9-7.64-.31-.61-.6-1.2-.89-1.79-1.74-3.57-3.36-7.08-4.9-10.52,2-.11,3.94-.2,5.88-.25,23.17-.51,44.76,4.14,62.38,14.24C945.33,126.1,945.33,126.17,945.34,126.24Z"/><path class="cls-13" d="M927.69,193.44,926,191.32c-1.41-1.71-2.8-3.44-4.21-5.25-2-2.53-4-5.17-6-7.87-1-1.35-2-2.72-3-4.13-.88-1.21-1.75-2.43-2.63-3.68-.14-.22-.29-.42-.44-.63-.73-1.06-1.46-2.13-2.21-3.2-.28-.43-.57-.87-.87-1.3-.73-1.09-1.46-2.19-2.2-3.32-.15-.22-.31-.46-.45-.69l-.19-.31h0c-.22-.34-.44-.67-.65-1l-1.75-2.71q-.89-1.38-1.74-2.76l-.83-1.35c-1.08-1.76-2.15-3.52-3.19-5.27-.81-1.38-1.61-2.72-2.38-4.09-.49-.85-1-1.69-1.44-2.54-.4-.67-.77-1.36-1.13-2-.55-1-1.08-1.93-1.6-2.9a320.14,320.14,0,0,1,56.3-10,97.89,97.89,0,0,1,0,10.7c-.86,16.94-6,34.42-14.85,51.32C929.61,190,928.66,191.72,927.69,193.44Z"/><path class="cls-20" d="M889,136.28c-5.22,1.43-10.57,3-16,4.81-5-9.47-9.24-18.59-12.87-27.18,1.46-.22,2.92-.45,4.37-.65q6.33-.84,12.55-1.22c1.54,3.44,3.16,6.95,4.9,10.52.29.59.58,1.18.89,1.79,1.25,2.51,2.54,5.06,3.9,7.64.73,1.4,1.5,2.82,2.26,4.25Z"/><path class="cls-2" d="M918.53,207.78a351.88,351.88,0,0,1-29-38.6c-1.3-2-2.57-4-3.85-6l-.83-1.34c-4.34-7-8.28-14-11.81-20.72,5.46-1.8,10.81-3.38,16-4.81.52,1,1.05,1.95,1.6,2.9.36.68.73,1.37,1.13,2,.47.85,1,1.69,1.44,2.54.77,1.37,1.57,2.71,2.38,4.09,1,1.75,2.11,3.51,3.19,5.27l.83,1.35q.85,1.38,1.74,2.76l1.75,2.71c.21.34.43.67.65,1,.06.1.14.2.2.3s.3.47.45.69c.74,1.13,1.47,2.23,2.2,3.32.3.43.59.87.87,1.3.75,1.07,1.48,2.14,2.21,3.2.15.21.3.41.44.63.88,1.25,1.75,2.47,2.63,3.68,1,1.41,2,2.78,3,4.13,2,2.7,4,5.34,6,7.87,1.41,1.79,2.8,3.54,4.21,5.25l1.73,2.12c-2.06,3.6-4.27,7.18-6.63,10.71C920.23,205.36,919.41,206.57,918.53,207.78Z"/><path class="cls-21" d="M733.59,293.67c-1.38,2.35-2.77,4.69-4.16,7a1.11,1.11,0,0,1-1.75.26,216.62,216.62,0,0,1-35.48-57.05,1.1,1.1,0,0,1,1-1.45l8.14-.62Z"/><path class="cls-1" d="M734.86,276.92l-17.92-28.81"/><path class="cls-22" d="M684,265.38h66.92a0,0,0,0,1,0,0v.24a4.51,4.51,0,0,1-4.51,4.51h-57.9a4.51,4.51,0,0,1-4.51-4.51v-.24a0,0,0,0,1,0,0Z" transform="translate(565.85 -482.89) rotate(58.12)"/><circle class="cls-20" cx="832.71" cy="196.07" r="38.34"/><path class="cls-1" d="M734.86,276.92l-17.92-28.8"/><path class="cls-2" d="M800.18,216.31a38.34,38.34,0,0,1,64.26-41.8c-7.32-2.21-23.33-5.71-38.5,1.87C804.84,186.9,800.9,211.11,800.18,216.31Z"/><path class="cls-20" d="M853,228.6a38.34,38.34,0,0,1-52.8-12.28h0c.72-5.2,4.66-29.41,25.76-39.93,15.17-7.58,31.18-4.08,38.5-1.87.28.42.57.85.84,1.29v0A38.33,38.33,0,0,1,853,228.6Z"/><path class="cls-14" d="M868.67,173.72A42.31,42.31,0,1,0,855.08,232,42.32,42.32,0,0,0,868.67,173.72ZM802.3,215a35.84,35.84,0,1,1,49.36,11.5A35.85,35.85,0,0,1,802.3,215Z"/><rect class="cls-23" x="685.96" y="259.4" width="74.62" height="9.5" rx="1.49" transform="translate(565.52 -489.51) rotate(58.12)"/><path class="cls-16" d="M784.71,225.93,671.15,296.58a.75.75,0,0,1,.21-1l82.9-63a.63.63,0,0,1,.24-.13l29.57-6.78A.54.54,0,0,1,784.71,225.93Z"/><path class="cls-14" d="M765.36,250.31l-93.22,46.52a.75.75,0,0,1-1-.25l113.56-70.65a.54.54,0,0,1-.08.6q-9.52,11.83-19,23.61A.63.63,0,0,1,765.36,250.31Z"/><text/><path class="cls-24" d="M603.31,398c-149-13.55-158.46,204.47-307.51,190.92a8,8,0,0,1-5.49-3.07l-45.77-75.9c-.89-1.48.14-2.46,2.27-2.27C395.86,521.17,405.27,303.16,554.32,316.7a8,8,0,0,1,5.49,3.08l45.77,75.9C606.47,397.16,605.44,398.14,603.31,398Z"/><path class="cls-25" d="M313.46,520.83l.44-.13c2.52-.61,5.82-.36,6.58,2.25a1,1,0,0,1-.72,1.47c-2.07.54-3-1.49-5.37-1.1-.06,0-.2,0-.39.06-8.51,2.46-4.7,37.51,9.75,33.91l.31-.09c4.48-1.3,1.31-5.73,4.85-6.76l.18-.05c.87-.25,1.62,0,1.83.74.22,1-.09,1.06-.33,2.34-.67,3-2.46,5-5.82,5.94l-.56.16c-12.13,3-16.67-11.06-17.86-18.2C305.1,536.14,304.33,523.47,313.46,520.83Z"/><path class="cls-25" d="M348.33,532.15l8.63,13c1.37,2.08-2.11,3.26-2.62,2.73-1.1-1.66-6.07-9.38-7.14-11-2.38-3.59-14.33-22.41-16.63-26a2.8,2.8,0,0,1,3.58-1.51c2.93,4.43,6.64,11.06,9.76,15.76.42.65,2.38,3.59,2.83,4.16.71.13,1-.22,1.51-.54,2.05-1.36,4.1-2.72,6.15-4-3-5.49-8.77-14.62-12.81-20.36l-.16-.23c-.46-.7,0-1.45.73-1.95a3.13,3.13,0,0,1,2.39-.26c.67,1,2.47,4.07,3.06,5.08,13.28,21.65,21.72,31.44,20,32.67s-3.17-.68-5.22-3.77c-.55-.83-5.77-8.12-6.32-9Z"/><path class="cls-25" d="M380.5,514l-.05.51,3.54,5.27c.48.69,2.17,2.36.82,3.66-.61.58-2-.06-2.41-.45-22.93-33.57-23-33.7-23-33.7-.49-1-1.24-2.41-.07-3.53a2.58,2.58,0,0,1,2-.79l1.18.48c11.48,6.53,21.74,14.69,32,22.88l2.78,2.33s0,.08,0,.12c.4,1.07.52,1.57-.37,2.42l-.14.14c-.28.27-.74.72-1.06.48l-8.45-6.45Zm-1.68-3.14,5.95-5.49-21-15.61Z"/><path class="cls-25" d="M412.44,497.61s-21.93-18.28-24.75-20.77c-.78-.69-7.64-5.71-8.47-6.36l-.29-.26a1,1,0,0,1-.44-1,8.63,8.63,0,0,1,.73-1c.77-.87,1.07-1.3,2.24-.78,2,1,2.83,2.06,4.48,3.44,8.67,7.23,17.33,14.72,26.38,21.68l.3-.34c1.8-2,2.93-4.48,4.78-6.57.68-.77,1.62-1.5,2.45-.76a1.24,1.24,0,0,1,0,1.77Z"/><path class="cls-25" d="M433.62,473.25c0,.05-22.19-18-25-20.43-.79-.68-7.72-5.61-8.55-6.25l-.3-.25a1,1,0,0,1-.46-1,9.5,9.5,0,0,1,.72-1c.76-.88,1.06-1.31,2.23-.81,2,1,2.85,2,4.53,3.39,8.77,7.11,17.53,14.48,26.67,21.32l.3-.34c1.77-2.06,2.87-4.53,4.69-6.64.67-.79,1.6-1.52,2.44-.8a1.24,1.24,0,0,1,.08,1.77Z"/><path class="cls-25" d="M424.27,423.36a2.23,2.23,0,0,1,.12-3l6.95-7.5a3.59,3.59,0,0,1,2-.52.42.42,0,0,1,.25.14c.81.75,0,2.37-.72,3.13l-5.28,5.69,13.69,12.25,4.1-5.73.22-.24c2.07-2.22,3.14.36,1.62,2.48l-3.79,5.31,10.46,10c.43-.39,1.93-2,2.33-2.42,2.94-3.18,4.17-6.37,6.16-4.78,1.47,1.18-8.55,11.65-9.32,10.94Z"/><path class="cls-25" d="M448.57,397.67c-1.56-1.58.25-4.92,3.39-3.4l30,14.38c-1.55-1.88-10.1-12.47-13.37-16.82-2-2.62-4.45-5-5.85-7.88-.4-.46.14-.93.87-1.57,1.21-1,1.34-1,2.09-.06,3.63,4.46,6.68,9.43,10.27,13.94,2,2.5,11.59,14.47,13.69,16.89.42,1.17-1.52,2-2.53,1.62-1.25-.45-2.37-.94-33.31-15.55l22,25.88c1.09,1.26-1.5,3.3-2.27,2.42Z"/><path class="cls-25" d="M493.26,385.55c-3.44-6-9.64-18.77-.46-24.61l.42-.3c2.19-1.26,6.92-2.37,8-.55a1.62,1.62,0,0,1,.19.72c.2,2.94-3.64.68-7.11,2.16l-.28.17c-4.83,3.53-3.3,10.5,1.29,18.51l.61,1.05,3.11,5.17c2.07,3.09,7.62,10,12.67,7.14l.22-.13c3.6-2.31.44-9.11-.68-11.46a29.18,29.18,0,0,0-2.52-5.32c-1.9-2.92-6.26,3.91-7.89,1.47-.63-1.1.8-2.25,1.76-2.8l1-.62c1.32-.82,6.09-3.68,7.22-1.72l.52.91c.8,1.52,3.4,7.11,3.73,7.94,1.91,4.51,3.85,10.48-2,14.16l-.45.26c-8.59,4.93-15.89-6.38-18.89-11.48Z"/><path class="cls-25" d="M523.64,350.52a2.25,2.25,0,0,1,1.62-2.51l9.8-2.91a3.64,3.64,0,0,1,2,.56.45.45,0,0,1,.14.25c.32,1.06-1.22,2-2.21,2.33l-7.44,2.21L533.08,368l6.45-2.84.31-.1c2.91-.86,2.52,1.91.13,3l-6,2.64,3.92,13.89c.58-.11,2.69-.74,3.24-.91,4.16-1.23,6.84-3.36,7.75-1,.66,1.76-13.3,5.69-13.6,4.68Z"/><path class="cls-26" d="M747.22,172q-3.3,3.25-6.38,6.61a3.19,3.19,0,0,0-.46.32c-2.77,2-5.52,3.92-8.29,5.89q-12.45,8.94-24.81,18.06c-33,24.37-65.54,49.7-97,75.65-19.29,15.9-38.6,32.36-57.37,48.91l-1.12-1.27c18.79-16.57,38.09-33,57.42-49,31.35-25.83,63.69-51.05,96.58-75.3q12.13-9,24.32-17.72,4.11-3,8.26-5.89C741.28,176.22,744.25,174.11,747.22,172Z"/><path class="cls-26" d="M820.22,282.05q-7.05,3.33-14.1,6.7-4.7,2.22-9.39,4.48h0q-14.16,6.74-28.36,13.55c-26.79,12.83-53.62,25.78-80.22,38.7-31.27,15.19-62.94,30.69-94.14,46.08l-.82-1.53c31.21-15.4,62.88-30.9,94.15-46.09,26.8-13,53.84-26.05,80.84-39q14.48-6.93,28.91-13.81,4.7-2.25,9.39-4.48h0l1.22-.59Q814,284.28,820.22,282.05Z"/><path class="cls-27" d="M689,1008.39h0a4.77,4.77,0,0,1-.46,2,59.58,59.58,0,0,0-59-52H380.79a59.52,59.52,0,0,0-59,52,4.63,4.63,0,0,1-.47-2h0a59.54,59.54,0,0,1,59.48-59.56H629.55A59.53,59.53,0,0,1,689,1008.39Z"/></svg>